<svg id="Layer_1" data-name="Layer 1" xmlns="http://www.w3.org/2000/svg" viewBox="0 0 330.05 78.25"><defs><style>.cls-1{fill:#231f20;}</style></defs><title>Pixel-Black</title><path class="cls-1" d="M259.69,305.74H238V227.49h38a29.33,29.33,0,0,1,0,58.66H259.69Zm0-41.32H276a7.66,7.66,0,0,0,7.61-7.61,7.32,7.32,0,0,0-2.24-5.36,7.2,7.2,0,0,0-5.36-2.24H259.69Z" transform="translate(-237.97 -227.49)"/><path class="cls-1" d="M311.9,227.49h21.72v78.25H311.9Z" transform="translate(-237.97 -227.49)"/><path class="cls-1" d="M494.09,227.49v21.72H448.45v8.7h31.19v17.4H448.45V284h45.64v21.72H426.73V227.49Z" transform="translate(-237.97 -227.49)"/><path class="cls-1" d="M522.38,227.49V284H568v21.72H500.66V227.49Z" transform="translate(-237.97 -227.49)"/><path class="cls-1" d="M419.46,227.49v17.39h-8.7v8.7h-8.7v8.69h-8.7V271h8.7v8.69h8.7v8.7h8.7v17.39H393.37V297h-8.69v-8.69H376V297h-8.7v8.7H341.2V288.35h8.7v-8.7h8.69V271h8.7v-8.7h-8.7v-8.69H349.9v-8.7h-8.7V227.49h26.08v8.69H376v8.7h8.7v-8.7h8.69v-8.69Z" transform="translate(-237.97 -227.49)"/></svg>