<?xml version="1.0" encoding="utf-8"?>
<!-- Generator: Adobe Illustrator 20.0.0, SVG Export Plug-In . SVG Version: 6.00 Build 0)  -->
<svg version="1.1" id="Layer_1" xmlns="http://www.w3.org/2000/svg" xmlns:xlink="http://www.w3.org/1999/xlink" x="0px" y="0px"
	 viewBox="0 0 330 78.2" style="enable-background:new 0 0 330 78.2;" xml:space="preserve">
<style type="text/css">
	.st0{fill:#FFFFFF;}
</style>
<title>Pixel-Black</title>
<path class="st0" d="M21.7,78.2H0V0h38c16.2,0,29.3,13.1,29.3,29.3c0,16.2-13.1,29.3-29.3,29.3H21.7V78.2z M21.7,36.9H38
	c4.2,0,7.6-3.4,7.6-7.6c0-2-0.8-4-2.2-5.4c-1.4-1.5-3.3-2.3-5.4-2.2H21.7V36.9z"/>
<path class="st0" d="M73.9,0h21.7v78.2H73.9V0z"/>
<path class="st0" d="M256.1,0v21.7h-45.6v8.7h31.2v17.4h-31.2v8.7h45.6v21.7h-67.4V0H256.1z"/>
<path class="st0" d="M284.4,0v56.5H330v21.7h-67.3V0H284.4z"/>
<path class="st0" d="M181.5,0v17.4h-8.7v8.7h-8.7v8.7h-8.7v8.7h8.7v8.7h8.7v8.7h8.7v17.4h-26.1v-8.8h-8.7v-8.7H138v8.7h-8.7v8.7
	h-26.1V60.9h8.7v-8.7h8.7v-8.6h8.7v-8.7h-8.7v-8.7h-8.7v-8.7h-8.7V0h26.1v8.7h8.7v8.7h8.7V8.7h8.7V0H181.5z"/>
</svg>
