<svg id="Layer_1" data-name="Layer 1" xmlns="http://www.w3.org/2000/svg" viewBox="0 0 333.19 45.66"><defs><style>.cls-1{fill:#fff;}</style></defs><title>Workers-White</title><path class="cls-1" d="M301,317.63H307L290.5,363H280.17l-8.23-25.42L263.62,363H253.29l-15.48-45.41h6.07l14.63,41.62h.89L271.94,325l12.44,34.21h2Zm-30.06,5.8L259,356.15l-13.85-38.52h5.52l7.78,24.48,8.32-24.48h10.33l8.23,24.48,9.06-24.48h5l-14,39.28-12.53-33.47Z" transform="translate(-237.81 -317.38)"/><path class="cls-1" d="M397.11,362.49V317.44l5.6-.06v45.12ZM404,317.38l5.65.06v15l13.61-15,8.14-.06L404,345.26Zm12.69,16.75,17,28.36H440l-16.1-27.16,16.26-17.9-7-.06ZM404,347v15.45h5.65V351l5.45-6,10.37,17.49,6.76,0-16.44-27.48Z" transform="translate(-237.81 -317.38)"/><path class="cls-1" d="M482.71,362.49H443.93V317.44h38.78v5.65H449.33v33.71h33.38Zm-32.12-21.9h23.8V345h-18v5h26.28v5.55H450.59Zm0-16.25h32.12v5.6H456.43v5h18v4.38h-23.8Z" transform="translate(-237.81 -317.38)"/><path class="cls-1" d="M531.58,357h25.78a9.07,9.07,0,0,0,5.92-2.13A9.18,9.18,0,0,0,566,348a7.69,7.69,0,0,0-2.08-5.81c-2.81-2.88-7.4-2.92-7.59-2.92H542.46c-4.65,0-6.91-2.61-6.91-8,0-6.81,6.42-6.94,6.69-6.94h26.23v5.6h-25a1.94,1.94,0,0,0-1.89,1.89,1.88,1.88,0,0,0,1.89,1.86H556.6a14.4,14.4,0,0,1,0,28.8h-25Zm0-7h25a1.94,1.94,0,0,0,1.89-1.89,1.88,1.88,0,0,0-1.89-1.86H543.46a14.4,14.4,0,0,1,0-28.8h25v5.65H542.24c-.08,0-7.95.13-7.95,8.2,0,6,2.82,9.24,8.17,9.24h13.89s4.25,0,6.69,2.54a6.48,6.48,0,0,1,1.72,4.89,7.14,7.14,0,0,1-7.77,7.79H531.58Z" transform="translate(-237.81 -317.38)"/><path class="cls-1" d="M328.29,331.48a8.86,8.86,0,1,1-8.86,8.86,8.87,8.87,0,0,1,8.86-8.86m0-7a15.9,15.9,0,1,0,15.9,15.9,15.92,15.92,0,0,0-15.9-15.9Z" transform="translate(-237.81 -317.38)"/><path class="cls-1" d="M328.29,322.84A17.56,17.56,0,1,1,315.94,328a16.65,16.65,0,0,1,12.34-5.13m0-5a22.59,22.59,0,1,0,15.91,6.62,21.62,21.62,0,0,0-15.91-6.62Z" transform="translate(-237.81 -317.38)"/><path class="cls-1" d="M376.33,323.42a10.15,10.15,0,0,1,7.1,2.64,11.06,11.06,0,0,1,3.75,8.15,10.61,10.61,0,0,1-1.43,5.46,10.74,10.74,0,0,1-3.8,3.91l-.6.29a11,11,0,0,1-3.27,1l-2.14.29,4,6.69,6.3,10.63h7l-8.13-13.71a16.91,16.91,0,0,0,8.13-14.46,17.09,17.09,0,0,0-5.52-12.49,16.21,16.21,0,0,0-11.37-4.39h-21.9v45.05l5.49-.11v-39l16.4.11" transform="translate(-237.81 -317.38)"/><path class="cls-1" d="M376.33,329.71a4.15,4.15,0,0,1,3.09,1.29,4.21,4.21,0,0,1,1.29,3.09,4.41,4.41,0,0,1-4.38,4.38h-9.39v-8.76h9.39m0-5h-9.39l-5.57-.11v18.82l5.57.11h9.39a9.41,9.41,0,0,0,0-18.82Z" transform="translate(-237.81 -317.38)"/><path class="cls-1" d="M367.11,361.15V351h4.32l6.21,10.52.49.83,6.5,0L374.36,345h-7.25l-5.69-.11v17.41l5.69,0Z" transform="translate(-237.81 -317.38)"/><path class="cls-1" d="M508.39,323.48a10.15,10.15,0,0,1,7.1,2.64,11.06,11.06,0,0,1,3.75,8.15,10.61,10.61,0,0,1-1.43,5.46,10.74,10.74,0,0,1-3.8,3.91l-.6.29a11,11,0,0,1-3.27,1l-2.14.29,4,6.69,6.3,10.63h7l-8.13-13.71a16.91,16.91,0,0,0,8.13-14.46,17.09,17.09,0,0,0-5.52-12.49,16.21,16.21,0,0,0-11.37-4.39h-21.9v45.05l5.49-.11v-39l16.4.11" transform="translate(-237.81 -317.38)"/><path class="cls-1" d="M508.39,329.77a4.15,4.15,0,0,1,3.09,1.29,4.21,4.21,0,0,1,1.29,3.09,4.41,4.41,0,0,1-4.38,4.38H499v-8.76h9.39m0-5H499l-5.57-.11v18.82l5.57.11h9.39a9.41,9.41,0,0,0,0-18.82Z" transform="translate(-237.81 -317.38)"/><path class="cls-1" d="M499.17,361.21v-10.1h4.32l6.21,10.52.49.83,6.5,0-10.26-17.42h-7.25l-5.69-.11v17.41l5.69,0Z" transform="translate(-237.81 -317.38)"/></svg>