<?xml version="1.0" standalone="no"?>
<!DOCTYPE svg PUBLIC "-//W3C//DTD SVG 20010904//EN"
 "http://www.w3.org/TR/2001/REC-SVG-20010904/DTD/svg10.dtd">
<svg version="1.0" xmlns="http://www.w3.org/2000/svg"
 width="704.000000pt" height="704.000000pt" viewBox="0 0 704.000000 704.000000"
 preserveAspectRatio="xMidYMid meet">
<metadata>
Created by potrace 1.11, written by Peter Selinger 2001-2013
</metadata>
<g transform="translate(0.000000,704.000000) scale(0.100000,-0.100000)"
fill="#000000" stroke="none">
<path d="M637 6707 c-3 -8 -1 -20 3 -27 5 -8 5 -21 0 -30 -5 -9 -5 -22 0 -30
5 -8 5 -21 0 -30 -5 -9 -5 -22 0 -30 5 -8 5 -21 0 -30 -5 -9 -5 -22 0 -30 5
-8 5 -21 0 -30 -5 -9 -5 -22 0 -30 5 -8 5 -21 0 -30 -5 -9 -5 -22 0 -30 5 -8
5 -21 1 -29 -5 -9 -5 -25 -1 -36 4 -11 4 -27 -1 -36 -4 -8 -4 -21 1 -29 4 -7
4 -24 0 -36 -5 -13 -5 -26 -1 -29 5 -3 5 -21 1 -40 -4 -20 -4 -33 1 -29 12 7
-2 -29 -14 -38 -6 -3 -21 -2 -33 2 -14 6 -26 5 -29 0 -3 -6 -15 -6 -29 0 -13
5 -27 6 -30 3 -8 -8 -76 -9 -76 -1 0 4 -13 3 -30 -2 -17 -5 -30 -5 -30 0 0 5
-13 5 -30 0 -17 -5 -30 -5 -30 0 0 5 -13 5 -30 0 -17 -5 -32 -5 -35 0 -3 5
-16 5 -30 0 -15 -6 -27 -6 -30 0 -3 5 -15 6 -29 0 -12 -4 -29 -4 -36 0 -8 5
-21 5 -30 0 -9 -5 -22 -5 -29 -1 -7 4 -23 6 -37 3 l-24 -4 0 -1279 0 -1278 48
-3 c26 -2 75 -1 109 2 35 3 63 2 63 -3 0 -4 4 -6 9 -2 6 3 58 5 118 5 59 0
126 0 148 1 22 1 47 1 55 0 8 -1 35 -1 60 -2 25 0 40 -2 33 -5 -8 -3 -9 -14
-3 -35 5 -16 6 -29 2 -29 -8 0 -5 -107 3 -127 2 -7 0 -13 -5 -13 -5 0 -5 -13
0 -30 5 -16 6 -30 2 -30 -8 0 -6 -109 2 -117 3 -3 1 -13 -4 -22 -5 -10 -5 -23
-1 -30 5 -7 5 -27 2 -45 -4 -17 -4 -46 0 -63 3 -18 3 -33 -2 -33 -4 0 -4 -13
1 -29 4 -16 6 -32 3 -35 -3 -3 8 -1 26 4 17 5 31 5 31 0 0 -5 13 -5 30 0 16 5
32 5 35 0 3 -5 19 -5 35 0 16 5 32 5 35 0 3 -5 19 -5 35 0 17 5 30 5 30 0 0
-5 12 -5 28 -1 28 7 75 6 99 -3 7 -3 13 -1 13 4 0 5 13 5 30 0 17 -5 30 -5 30
0 0 5 13 5 30 0 17 -5 30 -5 30 0 0 5 13 5 30 0 17 -5 30 -5 30 0 0 4 12 5 28
1 24 -7 27 -12 29 -55 1 -26 4 -54 7 -62 3 -8 1 -14 -3 -14 -5 0 -5 -16 -1
-35 4 -19 4 -37 0 -40 -5 -3 -5 -19 0 -35 5 -16 5 -32 1 -35 -5 -2 -5 -23 -1
-45 4 -22 4 -43 -1 -45 -4 -3 -4 -19 1 -35 5 -17 5 -32 0 -35 -5 -3 -5 -16 -1
-28 5 -12 5 -34 0 -49 -4 -16 -4 -28 1 -28 4 0 4 -16 0 -35 -4 -19 -4 -35 1
-35 4 0 6 -7 2 -16 -5 -14 -1 -16 25 -12 18 2 32 2 32 -1 0 -3 71 -5 157 -3
87 2 167 2 178 2 11 -1 27 -1 35 -1 8 1 29 1 45 0 17 0 36 0 43 0 24 1 42 1
65 0 12 -1 29 0 37 2 21 6 23 -28 19 -311 -1 -47 -1 -92 0 -100 0 -8 0 -44 0
-80 0 -130 3 -156 21 -151 8 2 25 3 38 2 12 -1 30 -1 40 -1 9 0 28 0 42 -1 14
0 32 0 40 0 8 1 26 1 40 0 14 0 31 0 38 0 26 1 109 2 169 1 34 -1 67 1 73 5 5
3 10 2 10 -3 0 -6 14 -7 35 -2 19 4 35 5 35 1 0 -4 14 -5 32 -3 26 4 30 2 25
-12 -4 -9 -3 -16 1 -16 4 0 7 -13 7 -30 0 -16 -3 -30 -7 -30 -4 0 -3 -13 2
-30 5 -17 5 -30 0 -30 -5 0 -5 -13 0 -30 5 -16 6 -30 2 -30 -7 0 -7 -40 -1
-110 2 -19 0 -40 -3 -46 -4 -5 -3 -16 2 -24 5 -8 5 -21 0 -30 -5 -9 -5 -22 0
-30 4 -7 4 -24 0 -36 -6 -14 -5 -26 0 -29 5 -3 5 -18 0 -35 -5 -17 -5 -30 0
-30 5 0 5 -14 0 -31 -5 -18 -7 -29 -4 -26 3 3 19 1 35 -3 16 -5 29 -5 29 0 0
5 13 5 30 0 17 -5 30 -5 30 0 0 5 13 5 30 0 17 -5 30 -5 30 0 0 5 13 5 30 0
17 -5 30 -5 30 0 0 5 12 5 28 1 28 -7 75 -6 99 3 7 3 13 1 13 -4 0 -5 13 -5
30 0 16 5 32 5 35 0 3 -5 19 -5 35 0 16 5 32 5 35 0 3 -5 19 -5 35 0 17 5 30
5 30 0 0 -5 14 -5 31 0 18 5 29 7 27 4 -3 -3 -2 -21 2 -40 4 -19 4 -36 0 -39
-5 -3 -5 -18 -1 -33 5 -15 5 -36 1 -47 -4 -11 -4 -32 1 -47 4 -15 4 -30 -1
-33 -5 -3 -5 -18 -1 -33 5 -15 5 -36 1 -47 -4 -11 -4 -32 1 -47 4 -15 4 -30
-1 -33 -5 -3 -5 -18 0 -34 4 -15 4 -34 0 -41 -4 -6 -4 -27 0 -45 4 -18 4 -39
0 -46 -5 -7 -5 -22 -1 -33 5 -12 6 -27 4 -33 -4 -10 63 -13 315 -13 175 0 321
3 324 6 4 3 2 19 -2 35 -5 16 -5 31 0 34 5 3 5 18 0 34 -4 15 -4 34 0 41 4 6
4 27 0 45 -4 18 -4 39 0 46 5 7 5 22 0 34 -5 12 -5 28 0 35 4 7 4 25 0 40 -4
15 -4 33 0 40 5 7 5 23 1 34 -4 12 -5 32 -1 46 4 14 4 36 0 50 -4 14 -4 36 0
50 4 14 3 30 -2 36 -16 22 18 44 52 34 17 -5 30 -5 30 0 0 5 13 5 30 0 17 -5
30 -6 30 -2 0 4 16 7 35 7 19 0 35 -3 35 -7 0 -4 14 -3 30 2 17 5 30 6 30 2 0
-8 97 -5 117 2 7 3 13 2 13 -2 0 -8 96 -6 117 2 7 3 13 2 13 -2 0 -4 17 -6 37
-5 21 1 45 2 54 2 18 1 32 48 18 57 -5 2 -4 16 1 29 5 13 5 27 1 30 -5 3 -5
21 -1 40 4 19 4 37 -1 40 -4 3 -4 16 1 29 5 13 6 27 3 30 -7 7 -7 101 0 113 3
5 2 15 -3 23 -5 8 -5 21 0 30 5 9 5 22 0 30 -4 7 -4 24 0 36 6 14 5 26 0 29
-5 3 -5 18 0 35 5 17 5 30 0 30 -4 0 -5 12 -1 27 5 20 16 29 39 34 18 4 35 3
38 -2 2 -4 15 -5 27 0 12 5 31 5 42 1 11 -4 24 -5 29 -2 6 3 28 5 50 4 23 -1
64 -2 91 -2 28 1 59 0 70 0 11 -1 27 -1 35 0 8 0 26 0 40 -1 14 0 32 0 40 0 8
1 24 1 35 1 11 -1 27 -1 35 -1 8 1 27 1 43 2 29 0 28 -3 27 93 -1 22 -3 43 -6
47 -2 4 0 10 5 13 5 3 6 21 1 40 -4 19 -4 39 0 46 4 7 4 27 0 45 -4 19 -4 52
0 74 4 23 4 41 0 41 -4 0 -4 18 0 40 4 22 4 40 0 40 -4 0 -4 18 0 40 4 22 4
40 0 40 -4 0 -4 17 -1 37 5 29 12 38 34 44 15 4 27 4 27 -1 0 -4 18 -4 40 0
22 4 40 5 40 1 0 -5 80 -5 235 -1 11 0 27 0 35 0 17 -1 76 -1 105 0 11 1 27 1
35 0 81 -4 107 8 90 40 -5 9 -5 22 0 30 5 8 5 21 0 30 -5 9 -5 22 0 30 5 8 5
21 0 30 -5 9 -5 22 0 30 5 8 5 21 0 30 -5 9 -5 22 0 30 5 8 5 21 0 30 -5 9 -5
22 0 30 5 8 5 21 0 30 -5 9 -5 22 0 29 4 8 4 27 0 42 -5 16 -5 29 0 29 4 0 4
16 0 35 -4 19 -4 35 0 35 4 0 4 15 0 34 -4 19 -4 40 1 47 4 7 3 21 -2 30 -11
21 13 30 48 18 12 -5 25 -4 28 1 3 6 15 6 29 0 13 -5 27 -6 30 -3 8 8 76 9 76
1 0 -4 13 -3 30 2 16 5 30 6 30 2 0 -8 97 -5 117 2 7 3 13 2 13 -2 0 -8 96 -6
117 2 7 3 13 2 13 -2 0 -12 103 -3 111 9 4 7 3 23 -1 35 -6 14 -5 26 0 29 6 3
6 15 0 29 -5 13 -6 27 -3 30 8 8 9 76 1 76 -4 0 -3 14 2 30 5 17 5 30 0 30 -5
0 -5 13 0 30 5 17 5 30 0 30 -5 0 -5 13 0 30 5 17 5 30 0 30 -5 0 -5 13 0 30
5 16 5 32 0 35 -5 3 -5 19 0 35 5 17 5 32 0 35 -5 3 -5 16 0 30 5 13 6 27 1
29 -5 3 -6 17 -4 30 5 22 11 25 64 28 32 1 59 -1 59 -5 0 -5 4 -6 8 -3 5 3 30
5 58 6 78 1 206 1 244 -1 19 0 42 -1 50 0 16 1 78 1 89 -1 3 0 21 0 39 1 l32
1 0 1281 0 1281 -24 -4 c-14 -3 -30 -1 -37 3 -7 4 -20 4 -29 -1 -9 -5 -22 -5
-30 0 -7 4 -24 4 -36 0 -14 -6 -26 -5 -29 0 -3 5 -18 5 -35 0 -17 -5 -30 -5
-30 0 0 5 -13 5 -30 0 -17 -5 -30 -5 -30 0 0 5 -13 5 -30 0 -17 -5 -30 -5 -30
0 0 5 -13 5 -30 0 -16 -5 -30 -6 -30 -2 0 8 -74 7 -87 -1 -5 -3 -15 -2 -23 3
-7 4 -23 4 -36 0 -12 -5 -25 -6 -29 -2 -4 4 -12 7 -18 7 -7 0 -12 10 -11 23 0
12 -3 22 -7 22 -4 0 -4 13 1 29 4 15 4 34 0 42 -5 7 -5 20 0 29 5 9 5 22 0 30
-5 8 -5 21 0 30 5 9 5 22 0 30 -5 8 -5 21 0 30 5 9 5 22 0 30 -5 8 -5 21 0 30
5 9 5 22 0 30 -5 8 -5 21 0 30 5 9 5 22 0 30 -5 8 -5 21 0 30 5 9 5 22 0 30
-5 8 -5 21 0 30 5 9 5 22 0 30 -5 8 -5 21 0 30 5 9 5 22 0 30 -4 7 -6 19 -3
27 4 11 -156 13 -955 13 -951 0 -960 0 -965 -20 -3 -11 -1 -22 4 -25 4 -3 4
-16 -1 -30 -6 -15 -6 -27 0 -30 6 -3 6 -15 0 -30 -6 -15 -6 -27 0 -30 6 -3 6
-15 0 -30 -6 -15 -6 -27 0 -30 6 -3 6 -15 0 -30 -6 -15 -6 -27 0 -30 6 -3 6
-15 0 -30 -6 -15 -6 -27 0 -30 5 -3 6 -15 0 -29 -4 -12 -5 -29 0 -36 5 -7 4
-24 0 -36 -6 -14 -5 -26 0 -29 6 -3 6 -15 0 -30 -5 -13 -5 -27 -1 -30 5 -3 5
-21 1 -40 -4 -20 -4 -33 1 -29 12 7 -2 -29 -15 -38 -5 -4 -17 -3 -26 2 -9 5
-22 5 -30 0 -7 -4 -23 -4 -36 0 -12 5 -25 6 -28 3 -8 -8 -76 -9 -76 -1 0 4
-13 3 -30 -2 -16 -5 -30 -6 -30 -2 0 8 -68 8 -76 -1 -3 -3 -19 -1 -35 3 -16 5
-29 5 -29 0 0 -5 -13 -5 -30 0 -16 5 -32 5 -35 0 -3 -5 -19 -5 -35 0 -17 5
-30 6 -30 2 0 -4 -11 -7 -25 -7 -14 0 -25 3 -25 7 0 4 -8 5 -17 2 -10 -3 -23
-7 -29 -9 -8 -2 -9 -17 -4 -44 4 -22 5 -43 2 -46 -3 -3 -5 -31 -3 -63 1 -31 2
-64 1 -72 0 -8 0 -26 1 -40 0 -14 1 -29 0 -35 -2 -95 -1 -136 4 -145 3 -5 3
-10 -2 -10 -9 0 -9 -143 1 -158 7 -12 -27 -35 -37 -26 -5 5 -37 6 -133 2 -22
-1 -44 1 -50 4 -5 3 -18 2 -29 -2 -11 -4 -32 -4 -47 1 -16 4 -28 5 -28 1 0 -6
-65 -7 -80 -2 -3 2 -9 1 -15 0 -5 -1 -34 -2 -62 -1 -58 2 -75 2 -115 0 -37 -1
-51 9 -45 32 3 10 1 21 -4 24 -4 3 -4 16 0 28 5 12 5 31 1 43 -5 11 -5 27 0
34 4 7 4 25 0 40 -4 15 -4 33 0 40 5 7 5 23 1 34 -4 12 -5 32 -1 46 4 14 3 34
-1 46 -4 11 -4 27 1 34 4 7 4 25 0 40 -4 15 -4 33 0 40 5 7 5 23 0 34 -4 12
-4 29 -1 39 4 10 5 34 3 54 -4 30 -7 34 -26 29 -12 -3 -28 -1 -36 4 -8 5 -21
5 -30 0 -9 -5 -22 -5 -30 0 -7 4 -24 4 -36 0 -14 -6 -26 -5 -29 0 -3 5 -18 5
-35 0 -17 -5 -30 -5 -30 0 0 5 -13 5 -30 0 -17 -5 -30 -5 -30 0 0 5 -13 5 -30
0 -17 -5 -30 -5 -30 0 0 5 -13 5 -30 0 -17 -5 -30 -6 -30 -2 0 4 -19 6 -42 4
-24 -1 -49 -3 -55 -2 -19 0 -41 0 -55 -1 -46 -2 -53 7 -54 64 0 32 -3 60 -7
63 -3 3 -2 17 3 30 6 14 6 26 0 29 -6 3 -6 15 0 30 6 15 6 27 0 30 -6 3 -6 15
0 30 6 15 6 27 0 30 -6 3 -6 15 0 30 6 15 6 27 0 30 -6 3 -6 15 0 30 6 15 6
27 0 30 -6 3 -6 15 0 30 6 15 6 27 0 30 -6 3 -6 15 0 30 6 15 6 27 0 30 -6 3
-6 15 0 30 6 15 6 27 0 30 -5 3 -7 12 -3 20 4 13 -115 15 -955 15 -793 0 -961
-2 -965 -13z"/>
</g>
</svg>
